<svg width="60" height="54" viewBox="0 0 60 54" fill="none" xmlns="http://www.w3.org/2000/svg">
<path fill-rule="evenodd" clip-rule="evenodd" d="M23.5192 53.25H36.4808C45.5838 53.25 50.1367 53.25 53.4063 51.1063C54.817 50.1816 56.032 48.9884 56.9821 47.5946C59.1667 44.3863 59.1667 39.915 59.1667 30.9783C59.1667 22.0388 59.1667 17.5704 56.9821 14.3621C56.0321 12.9683 54.8171 11.775 53.4063 10.8504C51.3063 9.47085 48.6754 8.97793 44.6475 8.80293C42.7254 8.80293 41.0717 7.37376 40.6954 5.52168C40.4079 4.16505 39.6608 2.94929 38.5804 2.07987C37.5 1.21046 36.1526 0.740706 34.7658 0.750014H25.2342C22.3525 0.750014 19.8704 2.74793 19.3046 5.52168C18.9283 7.37376 17.2746 8.80293 15.3525 8.80293C11.3275 8.97793 8.69668 9.47376 6.59376 10.8504C5.1839 11.7752 3.96985 12.9684 3.02084 14.3621C0.833344 17.5704 0.833344 22.0388 0.833344 30.9783C0.833344 39.915 0.833344 44.3833 3.01793 47.5946C3.96293 48.9829 5.17626 50.1758 6.59376 51.1063C9.86334 53.25 14.4163 53.25 23.5192 53.25ZM30 19.0463C23.2888 19.0463 17.8463 24.3867 17.8463 30.9754C17.8463 37.5671 23.2888 42.9104 30 42.9104C36.7113 42.9104 42.1538 37.5671 42.1538 30.9783C42.1538 24.3867 36.7113 19.0463 30 19.0463ZM30 23.8179C25.975 23.8179 22.7083 27.0233 22.7083 30.9783C22.7083 34.9304 25.975 38.1358 30 38.1358C34.025 38.1358 37.2917 34.9304 37.2917 30.9783C37.2917 27.0233 34.025 23.8179 30 23.8179ZM43.7725 21.4321C43.7725 20.1138 44.8604 19.0463 46.205 19.0463H49.4425C50.7842 19.0463 51.875 20.1138 51.875 21.4321C51.8688 22.0705 51.6095 22.6804 51.1539 23.1278C50.6984 23.5751 50.0839 23.8234 49.4454 23.8179H46.205C45.8886 23.821 45.5747 23.7617 45.2813 23.6435C44.9878 23.5253 44.7205 23.3504 44.4946 23.1288C44.2687 22.9073 44.0887 22.6434 43.9648 22.3523C43.8409 22.0612 43.7756 21.7485 43.7725 21.4321Z" fill="#677B71"/>
</svg>
