<svg width="31" height="32" viewBox="0 0 31 32" fill="none" xmlns="http://www.w3.org/2000/svg">
<path d="M12.3125 29.8125V22.3637C12.3125 21.8438 12.8438 21.3125 13.375 21.3125H17.625C18.1562 21.3125 18.6875 21.8438 18.6875 22.375V29.8125C18.6875 30.3993 19.1632 30.875 19.75 30.875H28.25C28.8368 30.875 29.3125 30.3993 29.3125 29.8125V14.9375C29.3125 14.6557 29.2006 14.3855 29.0013 14.1862L26.125 11.3099V4.3125C26.125 3.7257 25.6493 3.25 25.0625 3.25H22.9375C22.3507 3.25 21.875 3.7257 21.875 4.3125V7.0599L16.2513 1.4362C15.8364 1.02127 15.1636 1.02127 14.7487 1.4362L1.9987 14.1862C1.79944 14.3855 1.6875 14.6557 1.6875 14.9375V29.8125C1.6875 30.3993 2.1632 30.875 2.75 30.875H11.25C11.8368 30.875 12.3125 30.3993 12.3125 29.8125Z" fill="#F9FAFB" stroke="black" stroke-width="1.5"/>
</svg>
