<svg width="34" height="34" viewBox="0 0 34 34" fill="none" xmlns="http://www.w3.org/2000/svg">
<path d="M32.719 7.01398L32.7184 7.01374L17.9523 1.10604L17.9434 1.10381L17.8957 1.08466L17.3139 0.851081C17.1126 0.770398 16.8879 0.770343 16.6865 0.850913L32.719 7.01398ZM32.719 7.01398C32.8756 7.07649 33.0099 7.18449 33.1046 7.32406C33.1992 7.46362 33.2499 7.62835 33.25 7.79698M32.719 7.01398L33.25 7.79698M33.25 7.79698V26.2026C33.2499 26.3712 33.1992 26.5359 33.1046 26.6755C33.0099 26.8151 32.8756 26.9231 32.719 26.9856L32.7185 26.9858L17.3123 33.1483C17.3122 33.1483 17.3122 33.1483 17.3122 33.1483C17.1111 33.2287 16.8868 33.2287 16.6857 33.1483C16.6857 33.1483 16.6856 33.1483 16.6856 33.1483L1.27988 26.986L33.25 7.79698ZM0.894968 26.6757C0.989313 26.8151 1.1232 26.9231 1.27942 26.9858L0.894968 26.6757ZM0.894968 26.6757C0.800563 26.5362 0.750074 26.3716 0.75 26.2032M0.894968 26.6757L0.75 26.2032M0.75 26.2032C0.75 26.2031 0.75 26.203 0.75 26.203M0.75 26.2032V26.203M0.75 26.203V7.79658V26.203ZM16.1043 1.08466L16.6861 0.851081L0.75 7.79641C0.750074 7.62796 0.800563 7.4634 0.894968 7.32389C0.989318 7.18447 1.12321 7.07647 1.27944 7.01376C1.27958 7.0137 1.27973 7.01364 1.27987 7.01358L16.0477 1.10604L16.0566 1.1038L16.1043 1.08466ZM30.3569 6.74138L30.0779 6.62923L29.7987 6.74094L17 11.8612L4.20133 6.74094L3.92253 6.6294L3.64378 6.74109L1.84603 7.46147L1.375 7.65022V8.15766V9.00766V9.51543L1.84646 9.70401L15.1875 15.0404V31.3669V31.8747L15.659 32.0633L16.7215 32.4883L17 32.5997L17.2785 32.4883L18.341 32.0633L18.8125 31.8747V31.3669V15.0426L32.1535 9.70614L32.625 9.51756V9.00978V8.15978V7.6529L32.1547 7.46388L30.3569 6.74138Z" fill="#F9FAFB" stroke="black" stroke-width="1.5"/>
</svg>
