<svg width="31" height="27" viewBox="0 0 31 27" fill="none" xmlns="http://www.w3.org/2000/svg">
<path d="M15.4716 8.49158L2.30465 4.59027C2.21087 4.56248 2.20864 4.43045 2.30144 4.39952L15.4684 0.0105409C15.4889 0.0036987 15.5111 0.00369885 15.5316 0.0105411L28.6986 4.39952C28.7914 4.43045 28.7891 4.56248 28.6953 4.59027L15.5284 8.49158C15.5099 8.49708 15.4901 8.49708 15.4716 8.49158Z" fill="#677B71"/>
<path d="M31 22.1633V7.13257C31 7.06614 30.9364 7.01817 30.8725 7.03642L17.0725 10.9793C17.0296 10.9915 17 11.0308 17 11.0754V26.8603C17 26.9289 17.0674 26.9771 17.1322 26.955L30.9322 22.2579C30.9727 22.2441 31 22.2061 31 22.1633Z" fill="#677B71"/>
<path d="M0 21.8615V7.13257C0 7.06614 0.0635904 7.01817 0.127472 7.03642L13.9275 10.9793C13.9704 10.9915 14 11.0308 14 11.0754V26.8574C14 26.9268 13.9312 26.9751 13.866 26.9515L0.0659595 21.9555C0.0263711 21.9412 0 21.9036 0 21.8615Z" fill="#677B71"/>
</svg>
