<svg width="34" height="31" viewBox="0 0 34 31" fill="none" xmlns="http://www.w3.org/2000/svg">
<path d="M25.419 14.0939L25.4191 14.0934L25.4196 14.0889L25.422 14.0683C25.424 14.0496 25.4269 14.021 25.43 13.9833C25.4363 13.9079 25.4433 13.7965 25.4461 13.6558C25.4517 13.3743 25.4405 12.9774 25.3726 12.5194C25.2365 11.6016 24.8756 10.4533 23.9834 9.49024C23.3676 8.82558 22.0426 7.92097 21.0738 7.52861C21.0735 7.52849 21.0732 7.52838 21.073 7.52826L11.9808 3.92315L11.9695 3.91866L11.9696 3.91839C11.6884 3.79077 11.3564 3.71537 11.0093 3.70388C10.6623 3.69239 10.3195 3.74543 10.0188 3.85485C9.71757 3.96453 9.47767 4.12366 9.3168 4.30639C9.15715 4.48773 9.08322 4.68235 9.08333 4.86927V4.86942V6.52733L16.7673 9.90261L16.7699 9.90378L16.7699 9.9038C16.8381 9.93467 16.9066 9.96557 16.9755 9.99661C17.9008 10.4135 18.8839 10.8565 19.6091 11.615C20.017 12.0417 20.248 12.5813 20.3778 13.0478C20.5077 13.5151 20.5417 13.9296 20.5417 14.1273V26.2444L22.3636 27.0704L22.3637 27.0704C22.6448 27.198 22.9768 27.2733 23.3238 27.2848C23.6708 27.2962 24.0134 27.2432 24.314 27.1338C24.6154 27.0242 24.8553 26.8651 25.0163 26.6823C25.176 26.501 25.25 26.3064 25.25 26.1195V26.1159L25.25 26.1159L25.4168 14.1239L25.417 14.1088L25.419 14.0939ZM25.419 14.0939L25.419 14.0941L25.419 14.0942L25.419 14.0939ZM3.63629 6.75175L3.63635 6.75178L15.2072 11.9977L15.2072 11.9977C15.7488 12.2431 16.1822 12.5709 16.4768 12.9451C16.7704 13.3179 16.9165 13.7238 16.9167 14.1273C16.9167 14.1274 16.9167 14.1274 16.9167 14.1274V28.9527V28.9528C16.9167 29.1397 16.8427 29.3343 16.683 29.5157C16.522 29.6984 16.282 29.8575 15.9807 29.9671C15.6801 30.0765 15.3374 30.1295 14.9905 30.1181C14.6435 30.1066 14.3115 30.0313 14.0304 29.9037L14.0303 29.9037L2.45946 24.6592L2.45943 24.6592C1.91761 24.4137 1.48401 24.0856 1.18941 23.7113C0.895813 23.3382 0.749812 22.932 0.75 22.5283V22.5282V7.70275V7.70269C0.749959 7.51577 0.823964 7.32115 0.983693 7.13982C1.14465 6.95709 1.38465 6.79799 1.68597 6.68836C1.98661 6.57898 2.32924 6.52594 2.67616 6.5374C3.02316 6.54886 3.35516 6.6242 3.63629 6.75175ZM20.303 1.08508L20.3029 1.08519L20.3099 1.08812L30.3744 5.29002L30.4215 5.32571C30.4678 5.36084 30.5343 5.41146 30.6152 5.47332C30.777 5.59709 30.9959 5.76568 31.2247 5.94515C31.4537 6.12479 31.6915 6.31449 31.8916 6.4807C32.0962 6.65074 32.2482 6.7855 32.3154 6.85912C33.583 8.2477 33.5832 9.48028 33.5833 9.92304V9.92866V9.92873V23.2861C33.5834 23.4731 33.5094 23.6677 33.3496 23.849C33.1887 24.0317 32.9487 24.1908 32.6474 24.3005C32.3467 24.4099 32.0041 24.4629 31.6572 24.4514C31.3102 24.44 30.9782 24.3646 30.697 24.2371L30.697 24.2371L28.875 23.4111V11.294V11.2939C28.8748 10.4013 28.4494 9.50552 27.8632 8.76092C27.2523 7.98506 26.2572 7.51625 25.2699 7.06882L25.2695 7.06861L17.4167 3.52921V2.03608V2.03603C17.4166 1.8491 17.4906 1.65448 17.6504 1.47315C17.8113 1.29043 18.0513 1.13133 18.3526 1.0217C18.6533 0.912312 18.9959 0.859279 19.3428 0.870738C19.6898 0.8822 20.0218 0.957536 20.303 1.08508Z" fill="#677B71" stroke="#F9FAFB" stroke-width="0.5"/>
</svg>
	