<svg width="34" height="31" viewBox="0 0 34 31" fill="none" xmlns="http://www.w3.org/2000/svg">
<path d="M2.97103 7.11601L2.97119 7.11608L14.542 12.362L14.5422 12.3621C15.0368 12.5862 15.4147 12.8778 15.6625 13.1925C15.9077 13.5039 16.0165 13.8245 16.0167 14.1273C16.0167 14.1274 16.0167 14.1274 16.0167 14.1275V28.9527V28.9529C16.0167 29.0285 15.988 29.1319 15.8828 29.2513C15.7744 29.3743 15.5953 29.4998 15.3439 29.5912C15.0944 29.682 14.8029 29.7282 14.5037 29.7183C14.2043 29.7084 13.9246 29.6434 13.6956 29.5395L13.6954 29.5394L2.12459 24.2949L2.12451 24.2949C1.62965 24.0706 1.25159 23.7789 1.00375 23.4639C0.758529 23.1523 0.649859 22.8315 0.65 22.5285V22.5282L0.65 7.70275L0.65 7.70261C0.649984 7.62697 0.678657 7.52364 0.783849 7.40422C0.892242 7.28116 1.0714 7.1557 1.32273 7.06426C1.57231 6.97345 1.86373 6.9273 2.16295 6.93719C2.46239 6.94708 2.74208 7.01214 2.97103 7.11601ZM24.5226 14.0403L24.5226 14.0405L24.5225 14.041L24.5225 14.0414L24.5224 14.0419L24.5223 14.0424L24.5174 14.0792L24.5168 14.1183L24.3501 26.1104L24.35 26.1104L24.35 26.1196C24.35 26.1952 24.3213 26.2985 24.2162 26.4179C24.1078 26.541 23.9286 26.6665 23.6773 26.7579C23.4277 26.8487 23.1363 26.8949 22.837 26.885C22.5376 26.8751 22.2579 26.81 22.029 26.7062L22.0288 26.7061L20.4417 25.9866V14.1273C20.4417 13.8955 20.4034 13.4449 20.2632 12.9407C20.1235 12.4385 19.8682 11.8301 19.3982 11.3386C18.6165 10.5209 17.5635 10.0473 16.6517 9.63714C16.5785 9.60422 16.5062 9.57171 16.4351 9.53946L16.4351 9.53942L16.4282 9.53639L8.98333 6.26615V4.86942V4.86903C8.98329 4.7934 9.01192 4.6901 9.11703 4.5707C9.22533 4.44768 9.40437 4.32222 9.65559 4.23074C9.90522 4.13991 10.1967 4.09375 10.496 4.10366C10.7956 4.11358 11.0753 4.1787 11.3042 4.28263L11.3186 4.28916L11.3333 4.29499L20.4229 7.89904C20.4235 7.89932 20.4242 7.89959 20.4249 7.89987C21.3439 8.27235 22.6176 9.14437 23.1899 9.76209C24.0098 10.647 24.3482 11.7099 24.4769 12.5781C24.5409 13.0098 24.5515 13.3839 24.5462 13.6478C24.5435 13.7794 24.537 13.8825 24.5314 13.9504C24.5286 13.9844 24.5261 14.0094 24.5244 14.0247L24.5226 14.0403ZM19.6377 1.44935L19.6467 1.45343L19.6558 1.45724L29.6734 5.63953L29.6797 5.64431C29.7256 5.67918 29.7917 5.72949 29.8721 5.79101C30.0331 5.91415 30.2506 6.0817 30.4778 6.25987C30.7055 6.4385 30.94 6.62559 31.1359 6.78836C31.3438 6.96108 31.4743 7.07882 31.5199 7.1288C32.6835 8.40341 32.6834 9.51194 32.6833 9.91546V9.92866V9.92884V23.2861V23.2862C32.6833 23.3619 32.6547 23.4652 32.5495 23.5846C32.4411 23.7077 32.2619 23.8331 32.0106 23.9246C31.761 24.0154 31.4696 24.0615 31.1704 24.0516C30.8709 24.0418 30.5912 23.9767 30.3623 23.8728L30.3621 23.8727L28.775 23.1532V11.294V11.2939C28.7748 10.2791 28.2951 9.298 27.6775 8.51349C26.9958 7.64768 25.9038 7.14349 24.9351 6.70448L24.9338 6.70394L17.3167 3.27075V2.03608V2.03594C17.3166 1.9603 17.3453 1.85697 17.4505 1.73755C17.5589 1.6145 17.7381 1.48903 17.9894 1.39759C18.239 1.30679 18.5304 1.26064 18.8296 1.27052C19.1291 1.28041 19.4088 1.34548 19.6377 1.44935Z" fill="#F9FAFB" stroke="black" stroke-width="1.3"/>
</svg>
