<svg width="27" height="26" viewBox="0 0 27 26" fill="none" xmlns="http://www.w3.org/2000/svg">
<path d="M13.5 13C17.0208 13 19.875 10.1458 19.875 6.625C19.875 3.10418 17.0208 0.25 13.5 0.25C9.97918 0.25 7.125 3.10418 7.125 6.625C7.125 10.1458 9.97918 13 13.5 13ZM17.75 6.625C17.75 8.97221 15.8472 10.875 13.5 10.875C11.1528 10.875 9.25 8.97221 9.25 6.625C9.25 4.27779 11.1528 2.375 13.5 2.375C15.8472 2.375 17.75 4.27779 17.75 6.625Z" fill="#161C24"/>
<path d="M26.25 23.625C26.25 25.75 24.125 25.75 24.125 25.75H2.875C2.875 25.75 0.75 25.75 0.75 23.625C0.75 21.5 2.875 15.125 13.5 15.125C24.125 15.125 26.25 21.5 26.25 23.625ZM24.125 23.6176C24.1219 23.0932 23.7982 21.5222 22.3568 20.0807C20.9707 18.6947 18.3643 17.25 13.5 17.25C8.63562 17.25 6.02925 18.6947 4.64321 20.0807C3.20173 21.5222 2.87803 23.0932 2.875 23.6176H24.125Z" fill="#161C24"/>
</svg>
