<svg width="63" height="63" viewBox="0 0 63 63" fill="none" xmlns="http://www.w3.org/2000/svg">
<path fill-rule="evenodd" clip-rule="evenodd" d="M55.3954 1.77126C54.9875 1.36348 54.4679 1.0858 53.9022 0.973308C53.3365 0.860819 52.7501 0.918578 52.2173 1.13928C51.6844 1.35999 51.2289 1.73373 50.9084 2.21326C50.5879 2.69278 50.4168 3.25657 50.4167 3.83334V15.9958C48.6657 15.3768 46.7631 15.3309 44.9843 15.8649C43.2055 16.3988 41.6427 17.4849 40.5221 18.966C39.4016 20.4471 38.7813 22.2463 38.7512 24.1033C38.721 25.9603 39.2825 27.7787 40.3543 29.2954C41.4262 30.8121 42.9529 31.9484 44.7134 32.5398C46.4739 33.1313 48.377 33.1473 50.1471 32.5854C51.9173 32.0235 53.4628 30.913 54.56 29.4145C55.6571 27.916 56.249 26.1072 56.25 24.25V10.8742L57.1046 11.7288C57.3736 12.0073 57.6955 12.2295 58.0513 12.3824C58.4072 12.5352 58.7899 12.6157 59.1772 12.6191C59.5644 12.6224 59.9485 12.5486 60.3069 12.402C60.6654 12.2553 60.991 12.0388 61.2649 11.7649C61.5388 11.4911 61.7553 11.1654 61.902 10.807C62.0486 10.4485 62.1224 10.0644 62.1191 9.67717C62.1157 9.2899 62.0352 8.90717 61.8824 8.55133C61.7295 8.19548 61.5073 7.87365 61.2287 7.60459L55.3954 1.77126ZM30 9.66668C25.6496 9.66771 21.3861 10.885 17.6909 13.181C13.9957 15.477 11.016 18.7604 9.0882 22.6603C7.1604 26.5603 6.3613 30.9216 6.78112 35.2517C7.20094 39.5818 8.82295 43.7083 11.464 47.1653C14.1051 50.6223 17.6601 53.2721 21.7275 54.8156C25.7949 56.359 30.2128 56.7345 34.4824 55.8998C38.752 55.0651 42.7033 53.0534 45.89 50.0918C49.0767 47.1302 51.372 43.3367 52.5167 39.1396C52.6135 38.7661 52.7835 38.4155 53.0167 38.1082C53.25 37.8009 53.5419 37.5429 53.8756 37.3492C54.2092 37.1554 54.578 37.0298 54.9606 36.9797C55.3432 36.9295 55.7319 36.9557 56.1042 37.0568C56.4766 37.1579 56.8252 37.3318 57.1298 37.5686C57.4344 37.8054 57.6891 38.1002 57.879 38.4361C58.0689 38.772 58.1902 39.1422 58.236 39.5253C58.2818 39.9084 58.2512 40.2968 58.1458 40.6679C54.7829 53.055 43.4604 62.1667 30 62.1667C13.8912 62.1667 0.833328 49.1088 0.833328 33C0.833328 16.8913 13.8912 3.83334 30 3.83334C33.7917 3.83334 37.4229 4.55959 40.7537 5.88084C41.4728 6.16628 42.0489 6.72566 42.3555 7.43591C42.6621 8.14617 42.674 8.94912 42.3885 9.66813C42.1031 10.3871 41.5437 10.9633 40.8335 11.2699C40.1232 11.5765 39.3203 11.5884 38.6012 11.3029C35.8636 10.218 32.9448 9.66278 30 9.66668ZM30 30.0833C29.2264 30.0833 28.4846 30.3906 27.9376 30.9376C27.3906 31.4846 27.0833 32.2265 27.0833 33C27.0833 33.7736 27.3906 34.5154 27.9376 35.0624C28.4846 35.6094 29.2264 35.9167 30 35.9167C30.7735 35.9167 31.5154 35.6094 32.0624 35.0624C32.6094 34.5154 32.9167 33.7736 32.9167 33C32.9167 32.2265 32.6094 31.4846 32.0624 30.9376C31.5154 30.3906 30.7735 30.0833 30 30.0833ZM21.25 33C21.25 30.6794 22.1719 28.4538 23.8128 26.8128C25.4538 25.1719 27.6794 24.25 30 24.25C32.3206 24.25 34.5462 25.1719 36.1872 26.8128C37.8281 28.4538 38.75 30.6794 38.75 33C38.75 35.3207 37.8281 37.5463 36.1872 39.1872C34.5462 40.8281 32.3206 41.75 30 41.75C27.6794 41.75 25.4538 40.8281 23.8128 39.1872C22.1719 37.5463 21.25 35.3207 21.25 33Z" fill="#677B71"/>
</svg>
