<svg width="35" height="39" viewBox="0 0 35 39" fill="none" xmlns="http://www.w3.org/2000/svg">
<path d="M30.4792 3.66675H4.52082C4.09537 3.66675 3.68735 3.85024 3.38651 4.17687C3.08567 4.5035 2.91666 4.9465 2.91666 5.40841V33.5917C2.91666 34.0537 3.08567 34.4967 3.38651 34.8233C3.68735 35.1499 4.09537 35.3334 4.52082 35.3334H18.4917V23.0626H14.7V18.3126H18.4917V14.7501C18.4131 13.9137 18.5041 13.0688 18.7581 12.2746C19.0122 11.4804 19.4232 10.7562 19.9623 10.1527C20.5015 9.54927 21.1557 9.08118 21.8791 8.78129C22.6025 8.4814 23.3776 8.35698 24.15 8.41675C25.285 8.40916 26.4196 8.4726 27.5479 8.60675V12.8817H25.2292C23.3917 12.8817 23.0417 13.8317 23.0417 15.2092V18.2651H27.4167L26.8479 23.0151H23.0417V35.3334H30.4792C30.6898 35.3334 30.8984 35.2884 31.093 35.2008C31.2877 35.1133 31.4645 34.985 31.6135 34.8233C31.7624 34.6616 31.8806 34.4696 31.9612 34.2583C32.0418 34.0469 32.0833 33.8205 32.0833 33.5917V5.40841C32.0833 5.1797 32.0418 4.95322 31.9612 4.74191C31.8806 4.5306 31.7624 4.3386 31.6135 4.17687C31.4645 4.01514 31.2877 3.88685 31.093 3.79932C30.8984 3.7118 30.6898 3.66675 30.4792 3.66675Z" fill="#ECEDE8"/>
</svg>
