<svg width="74" height="75" viewBox="0 0 74 75" fill="none" xmlns="http://www.w3.org/2000/svg">
<g filter="url(#filter0_d_760_660)">
<path d="M50.8865 30.6168C52.3238 30.6207 53.7475 30.3395 55.0754 29.7894C56.4032 29.2393 57.6087 28.4313 58.6221 27.4121L69.1494 16.8916C69.982 16.059 70.0586 14.7041 69.2656 13.8304C69.0666 13.611 68.825 13.4342 68.5555 13.3109C68.2861 13.1876 67.9944 13.1203 67.6981 13.1132C67.4019 13.106 67.1073 13.1591 66.8322 13.2692C66.5571 13.3794 66.3073 13.5443 66.0978 13.7539L56.7148 23.13C56.3998 23.4447 55.9727 23.6215 55.5274 23.6215C55.0822 23.6215 54.6551 23.4447 54.34 23.13C53.6852 22.4765 53.7207 21.3718 54.3742 20.7183L63.7162 11.3763C63.9256 11.1669 64.0903 10.9172 64.2003 10.6422C64.3103 10.3672 64.3634 10.0728 64.3562 9.77673C64.349 9.48067 64.2818 9.18914 64.1587 8.91982C64.0355 8.6505 63.8589 8.40899 63.6396 8.20993C63.2438 7.85086 62.7276 7.65328 62.1932 7.65622C61.8932 7.65635 61.5962 7.71559 61.3192 7.83053C61.0421 7.94548 60.7905 8.11389 60.5785 8.32614L51.2447 17.6586C50.9297 17.9732 50.5026 18.15 50.0573 18.15C49.612 18.15 49.185 17.9732 48.8699 17.6586C48.2164 17.005 48.2506 15.9004 48.9041 15.2468L58.2461 5.90759C58.4555 5.69817 58.6202 5.44841 58.7302 5.17345C58.8402 4.89849 58.8932 4.60405 58.8861 4.30798C58.8789 4.01192 58.8117 3.72039 58.6886 3.45107C58.5654 3.18175 58.3888 2.94024 58.1695 2.74118C57.7736 2.38211 57.2575 2.18453 56.723 2.18747C56.1174 2.18819 55.5367 2.42911 55.1084 2.85739L44.5879 13.3779C43.5686 14.3915 42.7606 15.5973 42.2105 16.9253C41.6604 18.2534 41.3792 19.6774 41.3832 21.1148V22.24C41.3834 22.5277 41.3269 22.8126 41.2169 23.0784C41.1069 23.3442 40.9455 23.5857 40.742 23.789L35.8734 28.659C35.8226 28.7098 35.7623 28.7501 35.6959 28.7777C35.6296 28.8052 35.5584 28.8193 35.4865 28.8193C35.4147 28.8193 35.3435 28.8052 35.2771 28.7777C35.2107 28.7501 35.1504 28.7098 35.0996 28.659L11.409 4.96696C11.0001 4.55762 10.4457 4.32693 9.86712 4.32539C9.28855 4.32385 8.73293 4.55159 8.32188 4.95876C6.25059 7.01091 5.14453 9.90798 5.14453 13.3355C5.13086 18.9957 8.10586 25.5035 12.9088 30.2996L24.5914 41.9822C26.2519 43.6391 28.5018 44.5699 30.8477 44.5703C31.5955 44.5706 32.3403 44.475 33.0639 44.2859C33.2455 44.2383 33.4325 44.2139 33.6203 44.2135C34.1695 44.2135 34.6983 44.4211 35.101 44.7945L36.6582 46.2328C37.0598 46.6431 37.2855 47.194 37.2871 47.7681V48.5256C37.2831 50.2474 37.9598 51.901 39.1697 53.1261L51.4813 65.6455L51.4936 65.6592C52.86 67.0254 54.7133 67.7929 56.6456 67.7928C58.5779 67.7927 60.4311 67.0249 61.7974 65.6585C63.1636 64.292 63.9311 62.4388 63.931 60.5064C63.9309 58.5741 63.1631 56.7209 61.7967 55.3547L43.3424 36.9004C43.2915 36.8496 43.2512 36.7893 43.2237 36.7229C43.1962 36.6565 43.182 36.5853 43.182 36.5134C43.182 36.4416 43.1962 36.3704 43.2237 36.304C43.2512 36.2376 43.2915 36.1773 43.3424 36.1265L48.2109 31.258C48.4141 31.0547 48.6554 30.8934 48.921 30.7834C49.1865 30.6733 49.4711 30.6167 49.7586 30.6168H50.8865Z" fill="#677B71"/>
<path d="M30.8477 48.9453C27.3454 48.9381 23.9872 47.5503 21.5016 45.083L19.6066 43.1881C19.4016 42.9835 19.1238 42.8687 18.8342 42.8687C18.5446 42.8687 18.2668 42.9835 18.0617 43.1881L6.44062 54.749C4.36933 56.8203 3.62969 59.8691 4.65508 62.8551C4.71259 63.0232 4.78063 63.1876 4.85879 63.3472C6.23828 66.1719 8.91523 67.8125 11.8437 67.8125C12.8509 67.815 13.8485 67.6176 14.7788 67.2317C15.709 66.8459 16.5535 66.2793 17.2633 65.5648L32.7617 49.9926C32.827 49.926 32.8769 49.846 32.9081 49.7582C32.9392 49.6703 32.9509 49.5768 32.9422 49.484V49.4484C32.9361 49.3632 32.9128 49.28 32.8737 49.204C32.8347 49.128 32.7806 49.0607 32.7148 49.0062C32.649 48.9516 32.5729 48.9109 32.4909 48.8866C32.409 48.8623 32.323 48.8548 32.2381 48.8646C31.7763 48.9159 31.3122 48.9428 30.8477 48.9453Z" fill="#677B71"/>
</g>
<defs>
<filter id="filter0_d_760_660" x="-2" y="-1" width="78" height="78" filterUnits="userSpaceOnUse" color-interpolation-filters="sRGB">
<feFlood flood-opacity="0" result="BackgroundImageFix"/>
<feColorMatrix in="SourceAlpha" type="matrix" values="0 0 0 0 0 0 0 0 0 0 0 0 0 0 0 0 0 0 127 0" result="hardAlpha"/>
<feOffset dy="3"/>
<feGaussianBlur stdDeviation="2"/>
<feComposite in2="hardAlpha" operator="out"/>
<feColorMatrix type="matrix" values="0 0 0 0 0 0 0 0 0 0 0 0 0 0 0 0 0 0 0.25 0"/>
<feBlend mode="normal" in2="BackgroundImageFix" result="effect1_dropShadow_760_660"/>
<feBlend mode="normal" in="SourceGraphic" in2="effect1_dropShadow_760_660" result="shape"/>
</filter>
</defs>
</svg>
