<svg width="70" height="65" viewBox="0 0 70 65" fill="none" xmlns="http://www.w3.org/2000/svg">
<path d="M35 52.5C41.5139 52.5 47.0312 50.2279 51.5521 45.6837C56.0729 41.1396 58.3333 35.6339 58.3333 29.1667C58.3333 27.6597 58.2118 26.214 57.9688 24.8296C57.7257 23.4451 57.3368 22.0957 56.8021 20.7812C55.4896 21.6076 54.1042 22.2396 52.6458 22.6771C51.1875 23.1146 49.6806 23.3333 48.125 23.3333C45.5 23.3333 43.0335 22.7383 40.7254 21.5483C38.4174 20.3583 36.5089 18.6686 35 16.4792C33.4931 18.6667 31.5846 20.3564 29.2746 21.5483C26.9646 22.7403 24.4981 23.3353 21.875 23.3333C20.3194 23.3333 18.8125 23.1146 17.3542 22.6771C15.8958 22.2396 14.5104 21.6076 13.1979 20.7812C12.6632 22.0937 12.2743 23.4432 12.0313 24.8296C11.7882 26.216 11.6667 27.6617 11.6667 29.1667C11.6667 35.6319 13.9397 41.1376 18.4858 45.6837C23.0319 50.2299 28.5367 52.5019 35 52.5ZM26.25 35.7292C27.2708 35.7292 28.1342 35.3762 28.84 34.6704C29.5458 33.9646 29.8978 33.1022 29.8958 32.0833C29.8939 31.0644 29.541 30.2011 28.8371 29.4933C28.1332 28.7856 27.2708 28.4336 26.25 28.4375C25.2292 28.4414 24.3658 28.7943 23.66 29.4962C22.9542 30.1982 22.6022 31.0606 22.6042 32.0833C22.6061 33.1061 22.959 33.9694 23.6629 34.6733C24.3668 35.3772 25.2292 35.7292 26.25 35.7292ZM43.75 35.7292C44.7708 35.7292 45.6342 35.3762 46.34 34.6704C47.0458 33.9646 47.3978 33.1022 47.3958 32.0833C47.3939 31.0644 47.041 30.2011 46.3371 29.4933C45.6332 28.7856 44.7708 28.4336 43.75 28.4375C42.7292 28.4414 41.8658 28.7943 41.16 29.4962C40.4542 30.1982 40.1022 31.0606 40.1042 32.0833C40.1061 33.1061 40.459 33.9694 41.1629 34.6733C41.8668 35.3772 42.7292 35.7292 43.75 35.7292ZM21.875 17.5C24.6944 17.5 27.1007 16.5035 29.0938 14.5104C31.0868 12.5174 32.0833 10.1111 32.0833 7.29167V5.97917C28.7778 6.36806 25.7396 7.41319 22.9688 9.11458C20.1979 10.816 17.8889 12.9792 16.0417 15.6042C16.9167 16.1875 17.8403 16.6493 18.8125 16.9896C19.7847 17.3299 20.8056 17.5 21.875 17.5ZM48.125 17.5C49.1944 17.5 50.2153 17.3415 51.1875 17.0246C52.1597 16.7076 53.0833 16.2342 53.9583 15.6042C52.1111 12.9792 49.8137 10.816 47.0662 9.11458C44.3187 7.41319 41.2689 6.36806 37.9167 5.97917V7.29167C37.9167 10.1111 38.9132 12.5174 40.9063 14.5104C42.8993 16.5035 45.3056 17.5 48.125 17.5ZM0 64.1667L3.20833 29.0208C3.59722 24.9375 4.70361 21.1215 6.5275 17.5729C8.35139 14.0243 10.6847 10.9492 13.5275 8.3475C16.3703 5.74583 19.6272 3.70417 23.2983 2.2225C26.9694 0.740833 30.87 0 35 0C39.13 0 43.0315 0.741805 46.7046 2.22542C50.3776 3.70903 53.6346 5.75069 56.4754 8.35042C59.3163 10.9501 61.6496 14.0243 63.4754 17.5729C65.3013 21.1215 66.4067 24.9375 66.7917 29.0208L70 64.1667H0ZM35 58.3333C28.9236 58.3333 23.4549 56.6446 18.5938 53.2671C13.7326 49.8896 10.2083 45.5506 8.02083 40.25L6.41667 58.3333H63.5833L61.9792 40.25C59.7917 45.5486 56.279 49.8876 51.4412 53.2671C46.6035 56.6465 41.1231 58.3353 35 58.3333ZM35 58.3333H63.5833H6.41667H35Z" fill="#677B71"/>
</svg>
