<svg width="70" height="70" viewBox="0 0 70 70" fill="none" xmlns="http://www.w3.org/2000/svg">
<path d="M29.1954 0.253052C24.8527 0.253052 21.7915 3.32767 21.7915 7.6569C21.7915 12.4223 25.5554 15.5211 29.1954 18.5096C30.3854 19.4869 31.5485 20.4696 32.6442 21.5384H13.4615C9.91846 21.5384 6.97577 23.8296 5.88808 27.0065C5.88808 27.0065 6.43731 32.3077 14.8077 32.3077C22.5885 32.3077 22.8765 28.35 22.8846 28.1857C22.9027 27.8422 23.0528 27.519 23.3037 27.2837C23.5546 27.0483 23.8868 26.9191 24.2308 26.9231C24.5842 26.9345 24.92 27.08 25.17 27.33C25.42 27.58 25.5655 27.9158 25.5769 28.2692C25.5877 28.4065 25.9673 32.3077 35 32.3077C44.0327 32.3077 44.4096 28.35 44.4231 28.1857C44.4526 27.8316 44.6178 27.5025 44.8842 27.2672C45.1506 27.0319 45.4976 26.9086 45.8527 26.9231C46.1974 26.9378 46.5226 27.0869 46.7586 27.3386C46.9947 27.5902 47.1227 27.9243 47.1154 28.2692C47.1208 28.4119 47.3577 32.3077 55.1923 32.3077C63.8158 32.3077 64.1119 27.0065 64.1119 27.0065C63.0242 23.8323 60.0762 21.5384 56.5385 21.5384H37.3558C38.461 20.4794 39.6117 19.4689 40.8046 18.5096C44.4419 15.5211 48.2085 12.4196 48.2085 7.6569C48.2085 3.32767 45.15 0.253052 40.8046 0.253052C38.3008 0.253052 36.1819 2.04613 35 3.2819C33.8235 2.04344 31.6965 0.253052 29.1954 0.253052ZM24.3115 31.5511C22.9977 33.2634 20.3054 35 14.8077 35C9.40962 35 6.72808 33.3173 5.38462 31.6346V43.0769H64.6154V31.6346C63.2719 33.3038 60.5823 35 55.1923 35C49.6731 35 46.9969 33.2581 45.6858 31.5511C44.1942 33.2554 41.1519 35 35 35C28.8265 35 25.7977 33.2634 24.3142 31.5511H24.3115ZM8.07692 45.7692C4.53385 45.7692 1.59115 48.0604 0.503462 51.2373C0.506154 51.2373 1.05269 56.5384 9.42308 56.5384C17.2038 56.5384 20.1842 52.5807 20.1923 52.4165C20.2104 52.073 20.3605 51.7498 20.6114 51.5144C20.8623 51.2791 21.1945 51.1499 21.5385 51.1538C21.8919 51.1653 22.2276 51.3108 22.4777 51.5608C22.7277 51.8108 22.8732 52.1466 22.8846 52.5C22.8954 52.6373 25.9673 56.5384 35 56.5384C44.0327 56.5384 47.1019 52.5807 47.1154 52.4165C47.1449 52.0623 47.3102 51.7333 47.5765 51.498C47.8429 51.2627 48.1899 51.1394 48.545 51.1538C48.8897 51.1685 49.2149 51.3177 49.4509 51.5693C49.687 51.821 49.815 52.155 49.8077 52.5C49.8131 52.6427 52.7423 56.5384 60.5769 56.5384C69.2004 56.5384 69.4965 51.2373 69.4965 51.2373C68.4088 48.0631 65.4608 45.7692 61.9231 45.7692H8.07692ZM21.6219 55.7819C20.3054 57.4942 14.9208 59.2307 9.42308 59.2307C4.025 59.2307 1.34346 57.5481 0 55.8654V64.6154C0 69.0738 3.61846 70 8.07692 70H61.9231C66.3815 70 70 69.0738 70 64.6154V55.8654C68.6565 57.5346 65.9669 59.2307 60.5769 59.2307C55.0577 59.2307 49.6892 57.4888 48.3781 55.7819C46.8865 57.4861 41.1519 59.2307 35 59.2307C28.8265 59.2307 23.1054 57.4942 21.6219 55.7819Z" fill="#677B71"/>
</svg>
