<svg width="39" height="39" viewBox="0 0 39 39" fill="none" xmlns="http://www.w3.org/2000/svg">
<path d="M30.9562 8.2741C29.4664 6.80781 27.6919 5.64524 25.7362 4.85418C23.7804 4.06312 21.6826 3.65941 19.565 3.6666C10.6925 3.6666 3.46124 10.7124 3.46124 19.3574C3.46124 22.1283 4.20874 24.8199 5.60624 27.1949L3.33124 35.3333L11.8625 33.1483C14.2187 34.3991 16.8675 35.0641 19.565 35.0641C28.4375 35.0641 35.6687 28.0183 35.6687 19.3733C35.6687 15.1774 33.995 11.2349 30.9562 8.2741ZM19.565 32.4041C17.16 32.4041 14.8037 31.7708 12.74 30.5833L12.2525 30.2983L7.18249 31.5966L8.53124 26.7833L8.20624 26.2924C6.87008 24.2135 6.16059 21.8104 6.15874 19.3574C6.15874 12.1691 12.1712 6.31077 19.5487 6.31077C23.1237 6.31077 26.4875 7.67243 29.0062 10.1424C30.2534 11.352 31.2418 12.7908 31.914 14.3754C32.5863 15.9599 32.929 17.6587 32.9225 19.3733C32.955 26.5616 26.9425 32.4041 19.565 32.4041ZM26.91 22.6508C26.5037 22.4608 24.5212 21.5108 24.1637 21.3683C23.79 21.2416 23.53 21.1783 23.2537 21.5583C22.9775 21.9541 22.2137 22.8408 21.9862 23.0941C21.7587 23.3633 21.515 23.3949 21.1087 23.1891C20.7025 22.9991 19.4025 22.5716 17.875 21.2416C16.6725 20.1966 15.8762 18.9141 15.6325 18.5183C15.405 18.1224 15.6 17.9166 15.8112 17.7108C15.99 17.5366 16.2175 17.2516 16.4125 17.0299C16.6075 16.8083 16.6887 16.6341 16.8187 16.3808C16.9487 16.1116 16.8837 15.8899 16.7862 15.6999C16.6887 15.5099 15.8762 13.5783 15.5512 12.7866C15.2262 12.0266 14.885 12.1216 14.6412 12.1058H13.8612C13.585 12.1058 13.1625 12.2008 12.7887 12.5966C12.4312 12.9924 11.3912 13.9424 11.3912 15.8741C11.3912 17.8058 12.8375 19.6741 13.0325 19.9274C13.2275 20.1966 15.8762 24.1549 19.9062 25.8491C20.865 26.2608 21.6125 26.4983 22.1975 26.6724C23.1562 26.9733 24.0337 26.9258 24.7325 26.8308C25.5125 26.7199 27.1212 25.8808 27.4462 24.9624C27.7875 24.0441 27.7875 23.2683 27.6737 23.0941C27.56 22.9199 27.3162 22.8408 26.91 22.6508Z" fill="#ECEDE8"/>
</svg>
