<svg width="46" height="49" viewBox="0 0 46 49" fill="none" xmlns="http://www.w3.org/2000/svg">
<g filter="url(#filter0_d_841_771)">
<path d="M23 8.16675C24.5675 8.16675 26.1753 8.21166 27.7337 8.28516L29.5743 8.38316L31.3362 8.49954L32.9862 8.62408L34.4932 8.75475C36.1286 8.89415 37.6675 9.67135 38.8391 10.9496C40.0108 12.2279 40.7401 13.9254 40.8988 15.7434L40.9722 16.6111L41.1097 18.469C41.238 20.3943 41.3333 22.4931 41.3333 24.5001C41.3333 26.507 41.238 28.6059 41.1097 30.5312L40.9722 32.3891C40.9483 32.6872 40.9245 32.975 40.8988 33.2568C40.74 35.0751 40.0104 36.7728 38.8384 38.0512C37.6664 39.3295 36.1271 40.1065 34.4913 40.2454L32.988 40.374L31.338 40.5006L29.5743 40.617L27.7337 40.715C26.1567 40.7913 24.5784 40.8308 23 40.8334C21.4215 40.8308 19.8433 40.7913 18.2663 40.715L16.4257 40.617L14.6638 40.5006L13.0138 40.374L11.5068 40.2454C9.8714 40.106 8.3325 39.3288 7.16086 38.0505C5.98921 36.7723 5.25988 35.0748 5.10116 33.2568L5.02782 32.3891L4.89032 30.5312C4.75014 28.5245 4.67554 26.5128 4.66666 24.5001C4.66666 22.4931 4.76199 20.3943 4.89032 18.469L5.02782 16.6111C5.05166 16.313 5.07549 16.0251 5.10116 15.7434C5.25981 13.9257 5.98889 12.2285 7.16016 10.9502C8.33143 9.67201 9.86989 8.89461 11.505 8.75475L13.0102 8.62408L14.6602 8.49954L16.4238 8.38316L18.2645 8.28516C19.8421 8.20887 21.4209 8.16939 23 8.16675ZM23 12.2501C21.4875 12.2501 19.931 12.295 18.4167 12.3644L16.6237 12.4604L14.9022 12.5727L13.2852 12.6952L11.8038 12.8238C11.0253 12.8853 10.2914 13.2518 9.73233 13.8584C9.17325 14.4649 8.82507 15.2723 8.74949 16.1374C8.53499 18.6058 8.33332 21.6785 8.33332 24.5001C8.33332 27.3217 8.53499 30.3944 8.74949 32.8628C8.90532 34.6431 10.174 36.0273 11.8038 36.1764L13.2852 36.303L14.9022 36.4255L16.6237 36.5398L18.4167 36.6357C19.931 36.7052 21.4875 36.7501 23 36.7501C24.5125 36.7501 26.069 36.7052 27.5833 36.6357L29.3763 36.5398L31.0978 36.4275L32.7148 36.305L34.1962 36.1764C34.9747 36.1149 35.7086 35.7483 36.2677 35.1418C36.8267 34.5353 37.1749 33.7279 37.2505 32.8628C37.465 30.3944 37.6667 27.3217 37.6667 24.5001C37.6667 21.6785 37.465 18.6058 37.2505 16.1374C37.1749 15.2723 36.8267 14.4649 36.2677 13.8584C35.7086 13.2518 34.9747 12.8853 34.1962 12.8238L32.7148 12.6972L31.0978 12.5747L29.3763 12.4604L27.5833 12.3644C26.0564 12.2913 24.5283 12.2531 23 12.2501ZM19.3333 19.549C19.3332 19.3495 19.3769 19.1529 19.4605 18.9765C19.5441 18.8 19.6652 18.6489 19.8132 18.5364C19.9612 18.424 20.1316 18.3534 20.3097 18.331C20.4877 18.3086 20.668 18.3349 20.8348 18.4077L20.9833 18.4894L28.6833 23.4384C28.8367 23.5369 28.9664 23.6752 29.0614 23.8415C29.1565 24.0078 29.2142 24.1972 29.2295 24.3936C29.2448 24.59 29.2173 24.7876 29.1493 24.9697C29.0814 25.1517 28.975 25.3128 28.8392 25.4392L28.6833 25.5618L20.9833 30.5128C20.8282 30.6129 20.6534 30.6692 20.4742 30.6768C20.295 30.6844 20.1169 30.6432 19.9553 30.5566C19.7937 30.4701 19.6536 30.3409 19.5471 30.1802C19.4406 30.0195 19.371 29.8323 19.3443 29.6349L19.3333 29.4511V19.549Z" fill="#ECEDE8"/>
</g>
<defs>
<filter id="filter0_d_841_771" x="0.666656" y="7.16675" width="44.6667" height="40.6667" filterUnits="userSpaceOnUse" color-interpolation-filters="sRGB">
<feFlood flood-opacity="0" result="BackgroundImageFix"/>
<feColorMatrix in="SourceAlpha" type="matrix" values="0 0 0 0 0 0 0 0 0 0 0 0 0 0 0 0 0 0 127 0" result="hardAlpha"/>
<feOffset dy="3"/>
<feGaussianBlur stdDeviation="2"/>
<feComposite in2="hardAlpha" operator="out"/>
<feColorMatrix type="matrix" values="0 0 0 0 0 0 0 0 0 0 0 0 0 0 0 0 0 0 0.25 0"/>
<feBlend mode="normal" in2="BackgroundImageFix" result="effect1_dropShadow_841_771"/>
<feBlend mode="normal" in="SourceGraphic" in2="effect1_dropShadow_841_771" result="shape"/>
</filter>
</defs>
</svg>
